<svg width="42" height="41" viewBox="0 0 42 41" fill="none" xmlns="http://www.w3.org/2000/svg">
<path d="M42 20.4615V38.7692C42 39.9538 41.0308 40.9231 39.8462 40.9231H33.3846V20.4615C33.3846 19.2769 34.3538 18.3077 35.5385 18.3077H39.8462C41.0308 18.3077 42 19.2769 42 20.4615ZM6.46154 18.3077H2.15385C0.969231 18.3077 0 19.2769 0 20.4615V38.7692C0 39.9538 0.969231 40.9231 2.15385 40.9231H8.61539V20.4615C8.61539 19.2769 7.64615 18.3077 6.46154 18.3077ZM36.6154 16.1538V3.23077C36.6154 1.4 35.2154 0 33.3846 0H8.61539C6.78462 0 5.38462 1.4 5.38462 3.23077V16.1538H6.46154C8.83077 16.1538 10.7692 18.0923 10.7692 20.4615V22.6154H31.2308V20.4615C31.2308 18.0923 33.1692 16.1538 35.5385 16.1538H36.6154ZM9.69231 40.9231H32.3077V24.7692H9.69231V40.9231Z" fill="#F77150"/>
</svg>
