<svg xmlns:inkscape="http://www.inkscape.org/namespaces/inkscape" 
xmlns:sodipodi="http://sodipodi.sourceforge.net/DTD/sodipodi-0.dtd" 
xmlns="http://www.w3.org/2000/svg" xmlns:svg="http://www.w3.org/2000/svg" xmlns:rdf="http://www.w3.org/1999/02/22-rdf-syntax-ns#" xmlns:cc="http://creativecommons.org/ns#" xmlns:dc="http://purl.org/dc/elements/1.1/" viewBox="0 0 10.583333 13.2291675" version="1.1" xml:space="preserve" x="0px" y="0px"><g style="" display="inline">
<path style="color:#f77150;" 
d="m 5.2905617,1.0509808 c -1.055674,0 -2.068457,0.4188103 -2.815097,1.1643503 -0.381518,0.380919 -0.677455,0.831522 -0.875814,1.321617 h -0.581075 c -0.55838103,0 -1.0185820333333,0.454503 -1.0185820333333,1.011584 v 0.956195 c 0,0.55718 0.4602010033333,1.011583 1.0185820333333,1.011583 h 0.766236 a 0.26453663,0.26453663 0 0 0 0.01,-6e-4 0.26453663,0.26453663 0 0 0 0.022,0 0.26453663,0.26453663 0 0 0 0.05499,-0.012 0.26453663,0.26453663 0 0 0 0,-3e-4 0.26453663,0.26453663 0 0 0 0.02799,-0.012 0.26453663,0.26453663 0 0 0 0.015,-0.01 0.26453663,0.26453663 0 0 0 0.01,-0.01 0.26453663,0.26453663 0 0 0 0.127472,-0.225352 0.26453663,0.26453663 0 0 0 -0.02799,-0.118175 c -0.121074,-0.356423 -0.18316,-0.730343 -0.18316,-1.106963 0,-0.380118 0.06299,-0.753738 0.18316,-1.106963 a 0.26453663,0.26453663 0 0 0 0.022,-0.06399 c 0.170563,-0.471599 0.443705,-0.905006 0.805727,-1.266529 0.647462,-0.6464611 1.525473,-1.0095833 2.441277,-1.0095833 0.915704,0 1.793716,0.3631222 2.441177,1.0095833 0.647462,0.646462 1.010984,1.522874 1.010984,2.436978 0,0.37702 -0.06199,0.75144 -0.183561,1.108263 a 0.26453663,0.26453663 0 0 0 -0.02,0.05599 c -0.408313,1.135657 -1.380805,1.974677 -2.564951,2.213526 -0.131672,-0.243648 -0.390117,-0.410912 -0.684054,-0.410912 -0.425608,0 -0.776633,0.350225 -0.776633,0.775834 0,0.425509 0.351025,0.775734 0.776633,0.775734 0.370921,0 0.685154,-0.266143 0.759738,-0.616268 1.326216,-0.257445 2.42798,-1.16875 2.931372,-2.412784 h 0.580875 c 0.5583813,0 1.0184823,-0.454402 1.0184823,-1.011583 v -0.956195 c 0,-0.557081 -0.460101,-1.011583 -1.0184823,-1.011583 H 8.9836697 C 8.7853117,3.0403551 8.4893757,2.5897511 8.1078577,2.2088331 7.3612167,1.4632925 6.3485337,1.0444822 5.2928597,1.0444822 Z m -10e-5,1.2675283 c -0.718946,1e-4 -1.408798,0.285339 -1.917289,0.79313 -0.508492,0.507692 -0.79443,1.196744 -0.79443,1.91499 a 0.26456425,0.26456425 0 0 0 0,3e-4 c 6e-4,0.4663 0.122074,0.923702 0.350925,1.328416 l -0.37402,1.11986 a 0.26456425,0.26456425 0 0 0 0.334328,0.334828 l 1.147754,-0.381918 c 0.386417,0.201057 0.816025,0.306634 1.252832,0.306634 0.718946,-10e-5 1.408798,-0.285339 1.917289,-0.79313 0.508491,-0.507691 0.79443,-1.196744 0.79453,-1.91499 -10e-5,-0.718146 -0.286039,-1.407198 -0.79453,-1.91499 -0.508491,-0.507691 -1.198343,-0.79303 -1.917289,-0.79303 a 0.26456425,0.26456425 0 0 0 -10e-5,0 z m 0,0.529087 h 10e-5 c 0.579076,10e-5 1.134157,0.229651 1.543469,0.638463 0.409413,0.408713 0.639163,0.962694 0.639263,1.54057 v 0 0 c -10e-5,0.577876 -0.22985,1.131858 -0.639263,1.54067 -0.409412,0.408713 -0.964393,0.638363 -1.543569,0.638363 -0.384418,0 -0.762037,-0.101278 -1.094666,-0.293737 a 0.26456425,0.26456425 0 0 0 -0.216053,-0.022 l -0.754639,0.251146 0.244748,-0.732643 a 0.26456425,0.26456425 0 0 0 -0.02699,-0.224752 c -0.218354,-0.346725 -0.334429,-0.74764 -0.334929,-1.157152 10e-5,-0.577776 0.229851,-1.131657 0.639163,-1.54037 0.409413,-0.408812 0.964394,-0.638363 1.54347,-0.638463 z m -4.271886,1.218439 h 0.408712 c -0.07798,0.311733 -0.117974,0.634064 -0.117974,0.960594 0,0.324231 0.03999,0.646762 0.118174,0.960594 h -0.408912 c -0.27714103,0 -0.48949503,-0.211954 -0.48949503,-0.482496 v -0.956195 c 0,-0.270543 0.212354,-0.482497 0.48949503,-0.482497 z m 8.135159,0 h 0.408812 c 0.277041,0 0.4893953,0.211954 0.4893953,0.482497 v 0.956195 c 0,0.270542 -0.2123543,0.482496 -0.4893953,0.482496 h -0.408912 c 0.07798,-0.313832 0.118174,-0.636363 0.118174,-0.960594 0,-0.32653 -0.03999,-0.648861 -0.118074,-0.960594 z m -5.109606,0.55788 c -0.216254,0.01 -0.393016,0.185661 -0.393016,0.402914 0,0.220653 0.182461,0.402514 0.403414,0.402514 0.220952,0 0.402114,-0.181861 0.402114,-0.402514 0,-0.220653 -0.181162,-0.402914 -0.402114,-0.402914 0,0 -0.01,-10e-5 -0.01,0 z m 1.236635,0 c -0.216254,0.01 -0.393016,0.185661 -0.393016,0.402914 0,0.220653 0.182461,0.402514 0.403414,0.402514 0.221052,0 0.402114,-0.181861 0.402114,-0.402514 0,-0.220653 -0.181062,-0.402914 -0.402114,-0.402914 0,0 -0.01,-10e-5 -0.01,0 z m 1.236735,0 c -0.216354,0.01 -0.393116,0.185661 -0.393116,0.402914 0,0.220653 0.182461,0.402514 0.403514,0.402514 0.220953,0 0.402114,-0.181861 0.402114,-0.402514 0,-0.220653 -0.181161,-0.402914 -0.402114,-0.402914 0,0 -0.01,-10e-5 -0.01,0 z m -1.226937,3.898965 c 0.13997,0 0.247447,0.107577 0.247447,0.246747 0,0.139071 -0.107477,0.246648 -0.247447,0.246648 -0.14007,0 -0.247547,-0.107577 -0.247547,-0.246648 0,-0.13917 0.107477,-0.246747 0.247547,-0.246747 z" fill="#f77150" stroke-width="0.00232497" stroke-linecap="round" stroke-linejoin="round"/></g></svg>