<svg width="47" height="90" viewBox="0 0 47 90" fill="none" xmlns="http://www.w3.org/2000/svg">
<path d="M4.4 54.9C4.4 49.8 4.7 39.7 4.9 32.8C5 28.3 5.2 23.3 5.4 18.3C5.5 14.6 5.6 11.4 5.6 9.8C5.7 7.1 6.4 5 7.6 3.9C8.3 3.2 9.2 2.9 10.2 3C12.8 3.2 14 5.5 14 10.1C14 11.4 14 12.5 14.1 13.9C14.2 16.2 14.3 18.4 14.3 24.8C14.2 34.8 14.9 41.7 15.3 47.2C14.8 47.3 14.3 47.4 13.8 47.6C11.7 48.3 6.8 52.2 4.4 54.9ZM25.1 57.1C24.5 58.9 24 61.4 26.8 62.9C28.4 63.8 30.8 63.1 31.5 61.8C31.5 61.8 31.5 61.8 31.6 61.7C32 59.1 33.6 56.2 34.7 54.2C35 53.7 35.2 53.3 35.3 53C35.8 52 36.3 51.2 36.9 50.6C36.9 48.7 36.2 46.3 34.2 45.1C33.2 44.5 32.1 44.4 31.1 44.7C30.1 45 29.3 45.8 28.7 47C28.7 47 28.7 47.1 28.6 47.1C28.6 47.1 28.6 47.2 28.7 47.2C29.3 48.6 29.4 51.1 28.4 53.3C27.8 55 26.6 56.2 25.1 57.1ZM20.9 47C21.5 47 22.2 46.9 23 46.7C24.8 46.4 26.7 46.1 27.8 46.5C27.9 46.4 27.9 46.2 28 46.1C28.2 43.6 28.1 41 25.2 40.1C23.8 39.7 22.6 39.7 21.5 40.3C19.8 41.2 18.4 43.4 17.2 46.9C17.8 46.9 18.4 46.9 18.9 46.9C19.7 47 20.3 47.1 20.9 47ZM41.3 51.1C40.5 50.6 39.7 50.4 39 50.6C38 50.9 37 51.9 36.2 53.6C36 53.9 35.8 54.4 35.5 54.9C34.2 57.3 31.8 61.8 32.6 64.3C32.8 65 33.3 65.5 34 65.8C37 67.1 38.5 64.4 41.3 59.1C41.6 58.5 42 57.8 42.3 57.2C42.4 56.9 42.7 56.9 43 57C43.3 57.1 43.3 57.4 43.2 57.7C42.9 58.4 42.5 59 42.2 59.6C39.6 64.6 37.6 68.5 33.6 66.7C32.6 66.3 32 65.6 31.7 64.6C31.6 64.2 31.5 63.9 31.5 63.4C30.7 64 29.6 64.4 28.5 64.4C27.7 64.4 27 64.2 26.4 63.9C25.3 63.3 24.5 62.4 24.1 61.5C23.6 62 22.8 62.5 22 62.7C21.6 62.8 21.1 62.9 20.7 62.9C19.6 62.9 18.4 62.5 17.4 61.8C17 62.4 16.4 63.1 15.6 63.7C15.5 63.8 15.4 63.8 15.3 63.8C15.1 63.8 15 63.7 14.9 63.6C14.7 63.4 14.8 63.1 15 62.9C16.7 61.5 17.4 60.3 17.2 58.9C15 58.7 13.6 58 13.5 58C13.2 57.9 13.1 57.6 13.2 57.3C13.3 57 13.6 56.9 13.9 57C14 57 18.3 59 23.5 57C25.5 56.2 26.9 55 27.6 53.2C28.4 51.3 28.3 49.1 27.9 47.9C27.7 47.3 24.8 47.7 23.4 47.9C22.6 48 21.8 48.2 21.1 48.2C20.4 48.2 19.8 48.2 19 48.2C17.4 48.1 15.8 48.1 14.3 48.6C12 49.4 5.7 54.7 4.4 57C3 59.3 2.9 62.3 2.9 64.3C2.9 65.3 3.3 67 3.8 69.1C4.8 73.4 6.2 80.4 5.8 87.9H38.7C38.7 85.8 38.9 78.8 39.9 77.2C40.8 75.9 43.4 70.9 43.7 65.8C43.9 59.1 43.9 52.8 41.3 51.1ZM23.7 57.8C21.6 58.6 19.7 58.8 18 58.8C18 59.5 17.9 60.1 17.7 60.8C19.3 62 20.8 61.8 21.6 61.6C22.6 61.3 23.4 60.8 23.7 60.1C23.6 59.4 23.7 58.6 23.9 57.8C23.8 57.7 23.8 57.8 23.7 57.8ZM46.5 61.6C46.4 64.8 45.8 73 44.1 75.9C43.2 77.4 42.1 81.3 42.1 83.8C42.1 84.8 42.1 88.7 42.1 88.7C42.1 89.4 41.5 90 40.8 90H4C3.3 90 2.7 89.4 2.7 88.7C2.7 88.7 2.7 84.2 2.7 80.2C2.7 80.2 0 68.2 0 62.4C0 57.9 2.1 56.4 2.1 50.2L3.3 8C3.3 2.3 6.4 0 10.2 0C14.9 0 16.8 2.7 16.8 7.5L17.6 40C18.4 40 19.8 36.9 24.3 36.9C29 36.9 30.1 41.4 31.3 41.8C32.5 42.3 33.9 41.8 35.6 42.6C38.1 43.8 38.5 46.4 39.2 47C40 47.6 41 47.9 42.9 48.6C47.1 50.4 46.6 58.4 46.5 61.6ZM41.8 50.2C40.7 49.5 39.7 49.3 38.7 49.5C38.4 49.6 38.1 49.7 37.8 49.9C37.6 47.8 36.7 45.5 34.6 44.3C33.3 43.6 31.9 43.4 30.7 43.8C30.1 44 29.6 44.3 29.1 44.7C29.1 42.7 28.6 40.1 25.5 39.1C23.8 38.6 22.3 38.7 21 39.4C19.1 40.4 17.5 42.7 16.3 46.5C15.9 41.1 15.3 34.4 15.4 24.8C15.4 18.3 15.3 16.2 15.2 13.8C15.1 12.4 15.1 11.3 15.1 10C15.1 6.4 14.3 2.2 10.3 1.9C9 1.8 7.8 2.2 6.9 3C5.5 4.3 4.7 6.6 4.6 9.6C4.6 11.3 4.5 14.4 4.4 18.1C4.3 23.1 4.1 28.1 3.9 32.6C3.7 40.2 3.4 51.7 3.4 56.1C3.4 56.1 3.4 56.1 3.4 56.2C1.9 58.7 1.7 61.9 1.7 64C1.7 65.2 2.1 66.9 2.6 69.1C3.6 73.4 5.1 80.7 4.6 88.2C4.6 88.5 4.8 88.6 5 88.7H5.1H39H39.1C39.3 88.7 39.5 88.5 39.5 88.2C39.5 84.7 39.8 78.7 40.6 77.6C41.5 76.2 44.2 71.1 44.6 65.7C45 57.6 44.7 52.2 41.8 50.2Z" fill="#010B14"/>
</svg>
