<svg width="53" height="41" viewBox="0 0 53 41" fill="none" xmlns="http://www.w3.org/2000/svg">
<path d="M38.316 19.716C35.154 22.692 30.69 24.18 26.04 24.18C21.39 24.18 16.926 22.692 13.764 19.53C12.648 18.414 12.648 16.74 13.764 15.624C14.88 14.508 16.554 14.508 17.67 15.624C21.762 19.716 30.132 19.716 34.224 15.624C35.34 14.508 37.014 14.508 38.13 15.624C39.246 16.74 39.246 18.6 38.316 19.716ZM7.44 0C4.278 0 1.86 2.418 1.86 5.58C1.86 8.742 4.278 11.16 7.44 11.16C10.602 11.16 13.02 8.742 13.02 5.58C13.02 2.418 10.602 0 7.44 0ZM48.36 35.34V12.09C48.36 12.09 48.36 12.09 48.36 11.904C47.244 12.462 45.942 13.02 44.64 13.02C43.338 13.02 42.036 12.648 40.92 11.904C40.92 11.904 40.92 11.904 40.92 12.09V35.34C38.874 35.34 37.2 37.2 37.2 40.92H52.08C52.08 37.2 50.406 35.34 48.36 35.34ZM3.72 11.904C3.72 12.09 3.72 12.09 3.72 11.904V35.34C1.674 35.34 0 37.2 0 40.92H14.88C14.88 37.2 13.206 35.34 11.16 35.34V12.09C11.16 12.09 11.16 12.09 11.16 11.904C10.044 12.648 8.742 13.02 7.44 13.02C6.138 13.02 4.836 12.648 3.72 11.904ZM44.64 0C41.478 0 39.06 2.418 39.06 5.58C39.06 8.742 41.478 11.16 44.64 11.16C47.802 11.16 50.22 8.742 50.22 5.58C50.22 2.418 47.802 0 44.64 0Z" fill="#F77150"/>
</svg>
