<svg width="47" height="48" viewBox="0 0 47 48" fill="none" xmlns="http://www.w3.org/2000/svg">
<path d="M22.2921 12.617C22.6731 9.651 21.8771 6.717 20.0491 4.351C17.9141 1.586 14.6831 0 11.1851 0C8.69212 0 6.33012 0.808 4.35212 2.336C1.98612 4.162 0.473123 6.801 0.0931227 9.766C-0.287877 12.731 0.508123 15.666 2.33612 18.032C4.47112 20.798 7.70112 22.385 11.2001 22.385C13.6931 22.385 16.0541 21.577 18.0311 20.049C20.3981 18.221 21.9121 15.582 22.2921 12.617Z" fill="#010B14"/>
<path d="M44.5681 37.459C44.4121 37.133 44.2551 36.807 44.1081 36.48C43.8741 35.961 43.2611 35.731 42.7421 35.965C42.2221 36.2 41.9921 36.813 42.2271 37.332C42.3811 37.671 42.5431 38.01 42.7061 38.35C43.9751 41.002 44.6651 42.719 42.9361 44.518C41.9741 45.514 41.1011 45.975 40.3021 45.932C39.4741 45.887 38.5571 45.282 37.5191 44.106L39.8991 42.268C40.1141 42.102 40.1641 41.797 40.0121 41.573L23.2991 16.6C22.4181 18.579 21.0561 20.321 19.2941 21.683C17.5451 23.034 15.5421 23.908 13.4101 24.265L33.3341 46.73C33.4361 46.845 33.5771 46.904 33.7211 46.904C33.8311 46.904 33.9431 46.869 34.0361 46.796L35.8811 45.372C36.9461 46.606 38.4011 47.897 40.1901 47.995C40.2621 47.998 40.3341 48 40.4081 48C41.7621 48 43.1101 47.311 44.4231 45.949C47.2321 43.027 45.7551 39.939 44.5681 37.459ZM23.8381 27.777C23.6451 27.939 23.4101 28.017 23.1771 28.017C22.8821 28.017 22.5881 27.891 22.3841 27.648L20.1901 25.023C19.8261 24.586 19.8831 23.935 20.3211 23.569C20.7601 23.203 21.4091 23.262 21.7751 23.699L23.9681 26.323C24.3331 26.761 24.2761 27.412 23.8381 27.777Z" fill="#010B14"/>
</svg>
