<svg width="48" height="65" viewBox="0 0 48 65" fill="none" xmlns="http://www.w3.org/2000/svg">
<path d="M16.8 64.9179H21.9001V24.1179H13.8L16.8 64.9179Z" fill="#010B14"/>
<path d="M31.1 24.1179H23.4V64.9179H28.7L31.1 24.1179Z" fill="#010B14"/>
<path d="M32.7 24.1179L30.3 64.9179H38.6L43.5 24.1179H32.7Z" fill="#010B14"/>
<path d="M12.3 24.1179H2.90002L7.30002 64.9179H15.2L12.3 24.1179Z" fill="#010B14"/>
<path d="M44.8 13.5179C44 13.1179 43.2 13.1179 42.6 13.2179C42.7 12.8179 42.7 12.3179 42.7 11.9179C42.6 10.5179 42 9.31786 41.1 8.61786C39.7 7.61786 37.8 7.61786 36.1 8.41786C36.1 6.81786 35.4 5.31786 34.1 4.31786C32.4 2.81786 29.9 2.51785 27.7 3.51785C26.9 1.31785 24.7 -0.182144 22.4 0.0178561C20.7 0.117856 19.1 1.11786 18.3 2.61786C16.9 1.11786 14.9 0.317854 12.9 0.517854C10.1 0.717854 7.7 2.71786 6.9 5.41786C5.9 5.21786 4.1 5.21786 2.6 6.31786C1.3 7.21786 0.6 8.61785 0.5 10.5179C0.4 12.1179 0.999998 13.4179 1.6 14.2179C0.899998 14.8179 0.4 15.5179 0.2 16.3179C-0.2 17.6179 -1.13249e-06 19.0179 0.799999 20.3179C1.6 21.7179 3 22.7179 4.6 23.0179H4.7C5.1 23.0179 42.2 23.0179 42.5 23.0179C42.6 23.0179 42.7 23.0179 42.7 23.0179C45.3 22.2179 47.1 20.2179 47.2 18.0179C47.2 17.7179 47.3 14.6179 44.8 13.5179ZM27.7 20.4179C27.5 20.8179 27.1 21.0179 26.7 20.8179C26.3 20.6179 26.1 20.2179 26.3 19.8179C26.6 19.2179 26.4 18.4179 25.8 18.0179C25.2 17.6179 24.5 17.7179 23.9 18.1179C23.8 18.2179 23.6 18.3179 23.3 18.3179C23.1 18.3179 22.9 18.2179 22.8 18.0179C22.7 17.9179 22.2 17.4179 21.4 17.4179C20.7 17.5179 20 18.1179 19.9 18.8179C19.8 19.6179 20.5 20.2179 20.5 20.2179C20.8 20.5179 20.8 21.0179 20.6 21.3179C20.4 21.5179 20.2 21.6179 20 21.6179C19.8 21.6179 19.6 21.5179 19.5 21.4179C19.3 21.2179 18.2 20.2179 18.4 18.7179C18.6 17.2179 19.8 16.0179 21.3 15.9179C22.2 15.8179 22.9 16.2179 23.4 16.5179C24.4 15.9179 25.7 16.0179 26.6 16.6179C27.8 17.6179 28.2 19.1179 27.7 20.4179ZM36.4 17.4179C36.2 18.9179 35 20.3179 33.1 21.0179C33 21.0179 32.9 21.0179 32.8 21.0179C32.5 21.0179 32.2 20.8179 32.1 20.5179C32 20.1179 32.2 19.7179 32.6 19.5179C33.9 19.0179 34.7 18.1179 34.9 17.2179C35 16.5179 34.6 15.9179 34.3 15.5179C33.6 14.7179 32.4 14.1179 31.4 14.0179C30 13.9179 28.9 14.7179 28.5 15.1179C28.3 15.3179 27.9 15.4179 27.7 15.2179C27.4 15.1179 27.3 14.8179 27.3 14.5179C27.3 13.8179 27.3 12.4179 26.3 11.3179C25.6 10.4179 24.4 9.91786 23.2 9.81786C22.2 9.71786 21.2 10.0179 20.6 10.6179C19.9 11.2179 19.6 12.1179 19.6 12.7179C19.6 13.0179 19.4 13.2179 19.1 13.3179C18.9 13.4179 18.6 13.4179 18.4 13.2179C18.1 13.0179 16.4 11.8179 14.3 12.3179C13.7 12.5179 11.9 13.1179 11.6 14.6179C11.4 15.9179 12.3 17.3179 13.8 18.0179C14.2 18.2179 14.4 18.6179 14.2 19.0179C14 19.4179 13.6 19.6179 13.2 19.4179C11.1 18.5179 9.8 16.3179 10.2 14.3179C10.6 11.9179 13.2 11.0179 14 10.8179C15.8 10.3179 17.4 10.8179 18.4 11.3179C18.6 10.6179 19 9.91786 19.7 9.31786C20.6 8.51786 22 8.11785 23.4 8.21785C25 8.31785 26.6 9.11785 27.6 10.2179C28.4 11.1179 28.7 12.1179 28.9 13.0179C29.6 12.6179 30.6 12.3179 31.7 12.4179C33.2 12.5179 34.7 13.3179 35.7 14.4179C36.2 15.4179 36.5 16.4179 36.4 17.4179Z" fill="#010B14"/>
</svg>
